# xmcd
#
# Track frame offsets: 
#        150
#        29278
#        57612
#        95372
#        128409
#        152930
#        182420
#        219093
#
# Disc length: 3412 seconds
#
# Revision: 1
# Processed by: cddbd v1.5.2PL0 Copyright (c) Steve Scherf et al.
# Submitted via: ExactAudioCopy v1.0b3
#
DISCID=600d5208
DTITLE=Phil Guy and The Chicago Machine - Tough Guy
DYEAR=2006
DGENRE=Blues
TTITLE0=Chicken Shack
TTITLE1=Down Home Blues
TTITLE2=Inflation
TTITLE3=You Made Your Move Too Soon
TTITLE4=Frosty
TTITLE5=She's Fine
TTITLE6=Like Ice Around My Heart
TTITLE7=Feeling Sexy
EXTD=
EXTT0=
EXTT1=
EXTT2=
EXTT3=
EXTT4=
EXTT5=
EXTT6=
EXTT7=
PLAYORDER=
